<?xml version="1.0" encoding="UTF-8" standalone="no"?>
<svg
   version="1.1"
   id="Layer_1"
   x="0px"
   y="0px"
   width="100%"
   viewBox="0 0 256 256"
   enable-background="new 0 0 256 256"
   xml:space="preserve"
   sodipodi:docname="file.svg"
   inkscape:version="1.3.2 (091e20e, 2023-11-25, custom)"
   xmlns:inkscape="http://www.inkscape.org/namespaces/inkscape"
   xmlns:sodipodi="http://sodipodi.sourceforge.net/DTD/sodipodi-0.dtd"
   xmlns="http://www.w3.org/2000/svg"
   xmlns:svg="http://www.w3.org/2000/svg"><defs
   id="defs4" /><sodipodi:namedview
   id="namedview4"
   pagecolor="#ffffff"
   bordercolor="#666666"
   borderopacity="1.0"
   inkscape:showpageshadow="2"
   inkscape:pageopacity="0.0"
   inkscape:pagecheckerboard="0"
   inkscape:deskcolor="#d1d1d1"
   inkscape:zoom="2"
   inkscape:cx="133.25"
   inkscape:cy="125.25"
   inkscape:window-width="1920"
   inkscape:window-height="1009"
   inkscape:window-x="1912"
   inkscape:window-y="-8"
   inkscape:window-maximized="1"
   inkscape:current-layer="Layer_1" />



<g
   id="g4"
   transform="translate(-6.516454,-8.5946176)"><path
     fill="#000000"
     opacity="1"
     stroke="none"
     d="m 176.35501,78.575836 c 2.89435,16.595139 7.89996,32.079464 14.78198,46.939084 1.60318,3.46155 0.18444,5.60529 -1.85957,7.97748 -15.847,18.39139 -29.28601,38.38503 -39.92326,60.23148 -1.16457,2.39175 -2.25779,4.81826 -3.42385,7.20929 -0.12307,0.25238 -0.52907,0.43284 -0.85327,0.60263 -1.34658,-1.04242 -1.29492,-2.82242 -1.2966,-4.271 -0.021,-17.99777 0.0195,-36.23193 -0.0293,-54.22952 -0.008,-3.08971 0.98897,-4.94644 3.49823,-6.95523 4.44481,-3.55826 4.48987,-9.10104 0.63955,-13.18981 -3.46121,-3.67558 -9.45086,-3.67366 -12.95167,0.004 -3.75778,3.94779 -3.6794,9.75109 0.83363,13.17156 2.80347,2.12475 3.50112,4.4237 3.48996,7.61804 -0.0633,18.16434 -0.0707,36.40787 -0.0887,54.57245 -0.001,1.23634 -0.15335,2.20965 -0.65153,3.6792 -1.45612,-0.70987 -2.0428,-2.4543 -2.71724,-3.84348 -11.2603,-23.19328 -24.91361,-44.8508 -41.73076,-64.42018 -2.806427,-3.2657 -3.144714,-5.85029 -1.334343,-9.74957 6.11689,-13.17485 10.884783,-26.856743 13.117103,-41.270821 0.71299,-4.603745 2.5959,-6.240784 7.45488,-6.164383 18.99315,0.298637 37.99391,0.08967 56.99149,0.163452 2.0182,0.0078 4.42514,-0.857902 6.05305,1.925148 z"
     id="path1"
     sodipodi:nodetypes="cssssccssssscsccssssscc" /><path
     fill="#000000"
     opacity="1"
     stroke="none"
     d="m 117.00735,69.395889 c -3.82653,-0.0034 -7.16447,0.04917 -10.48023,0.02576 -4.65853,-0.0329 -7.39857,-2.215302 -7.463819,-6.426506 -0.0958,-6.183151 -0.01574,-12.208992 -0.06284,-18.384426 -0.02833,-3.714163 2.837989,-3.914356 5.696809,-3.908333 13.47863,0.0284 26.95736,0.0089 40.43606,0.0063 10.98265,-0.0021 21.9677,0.124851 32.94667,-0.07722 3.80055,-0.06995 5.49317,1.234467 5.64429,5.03838 0.23125,5.82119 0.0548,11.465875 0.10162,17.442371 0.035,4.464732 -2.82638,6.325234 -7.41359,6.295342 -19.6347,-0.127945 -39.27087,-0.02947 -59.40497,-0.01167 z"
     id="path2"
     sodipodi:nodetypes="cssssssssscc" /><path
     fill="#000000"
     opacity="1"
     stroke="none"
     d="m 101.35273,209.39943 c -13.522545,1.46976 -26.685875,2.08145 -39.560261,4.94974 -3.344261,0.74507 -6.839893,1.14051 -9.811569,3.33867 14.713604,10.99746 154.72168,11.62854 169.78309,1.53933 -1.76488,-2.92502 -5.77427,-2.06061 -9.02908,-5.34878 6.4008,0.58764 11.33249,1.49676 15.73859,4.06038 2.95124,1.71714 2.51808,4.2725 -1.02689,5.89441 -4.25733,1.94783 -8.93054,2.58894 -13.49425,3.47239 -16.7216,3.237 -33.67416,4.40216 -50.64302,4.7898 -24.14764,0.55163 -48.32645,0.96422 -72.436865,-0.90453 -14.908814,-1.15558 -29.876454,-2.35586 -44.276024,-6.8842 -3.379978,-1.06291 -7.93853,-1.55052 -7.989998,-6.21474 -0.04896,-4.43699 4.466698,-5.07203 7.586952,-6.06595 10.669693,-3.39868 21.778938,-4.70265 32.868622,-5.78001 18.088547,-1.75731 36.214413,-2.52766 54.356203,-0.60298 0.96031,0.10188 2.00519,-0.003 3.29655,2.07399 -12.04341,0.5733 -23.46954,1.11723 -35.36205,1.68248 z"
     id="path3" /><path
     fill="#000000"
     opacity="1"
     stroke="none"
     d="m 101.43031,218.21313 c -2.446446,-1.12136 0.2253,-2.25012 1.48835,-2.5775 3.7011,-0.95933 7.55753,-1.41745 11.35946,-1.56166 16.13432,-0.61193 32.49309,-2.23739 48.31922,1.49363 1.24818,0.29426 2.2539,0.53143 3.56221,1.82545 -3.65411,1.9317 -8.53357,2.72003 -12.59981,3.00825 -16.5114,1.17033 -33.29693,3.09422 -49.37882,-0.77692 -0.79245,-0.19075 -1.6275,-0.97292 -2.75061,-1.41125 z"
     id="path4"
     sodipodi:nodetypes="cssscssc" /></g>
</svg>
